<svg width="116" height="40" viewBox="0 0 116 40" fill="none" xmlns="http://www.w3.org/2000/svg">
<g clip-path="url(#clip0_147_4252)">
<path d="M19.9678 0C20.0862 0.0515475 20.1638 0.116156 20.2546 0.207387C20.2831 0.23582 20.3116 0.264253 20.3409 0.293548C20.3719 0.32479 20.4028 0.356033 20.4347 0.388223C20.4675 0.421096 20.5003 0.45397 20.5342 0.487839C20.6055 0.559301 20.6768 0.630873 20.7479 0.702533C20.8607 0.816047 20.9737 0.929308 21.0867 1.04254C21.2657 1.22189 21.4445 1.4014 21.6232 1.58099C21.9426 1.90197 22.2623 2.22276 22.5821 2.54336C22.6942 2.65573 22.8062 2.7682 22.9181 2.88076C22.9711 2.93408 23.0242 2.98737 23.0773 3.04063C23.1418 3.10528 23.2062 3.16999 23.2704 3.23478C23.3959 3.36046 23.5214 3.48394 23.6564 3.59934C23.865 3.7788 24.0561 3.97684 24.2501 4.17171C24.2945 4.21615 24.3389 4.26058 24.3833 4.305C24.4784 4.40022 24.5735 4.49549 24.6685 4.59081C24.8189 4.74171 24.9695 4.89247 25.1201 5.04322C25.4669 5.3904 25.8135 5.73777 26.1601 6.08514C26.478 6.40366 26.7959 6.72215 27.1139 7.04049C27.2634 7.19016 27.4128 7.33992 27.5622 7.48974C27.6553 7.58312 27.7485 7.67641 27.8417 7.76969C27.8847 7.81275 27.9277 7.85584 27.9706 7.89896C28.1627 8.0919 28.3549 8.28197 28.562 8.459C28.7416 8.61935 28.9089 8.79359 29.0787 8.96418C29.1227 9.00827 29.1668 9.05235 29.2108 9.09643C29.3052 9.19089 29.3995 9.28541 29.4937 9.37997C29.643 9.52967 29.7924 9.67924 29.9418 9.82879C30.2858 10.1732 30.6297 10.5178 30.9736 10.8625C31.2889 11.1785 31.6043 11.4944 31.9198 11.8103C32.0681 11.9587 32.2163 12.1073 32.3645 12.2559C32.4569 12.3486 32.5493 12.4411 32.6418 12.5337C32.6845 12.5764 32.7271 12.6191 32.7697 12.6619C32.9648 12.8579 33.1599 13.0515 33.3702 13.2312C33.4774 13.3246 33.5771 13.4253 33.6773 13.5262C33.6999 13.5487 33.7225 13.5713 33.7457 13.5945C33.8192 13.668 33.8926 13.7417 33.966 13.8154C34.0174 13.8668 34.0687 13.9182 34.1201 13.9696C34.2545 14.1041 34.3888 14.2388 34.5231 14.3734C34.6605 14.5111 34.798 14.6488 34.9354 14.7864C35.2045 15.0558 35.4735 15.3254 35.7424 15.595C35.6787 15.7322 35.5975 15.8193 35.4893 15.9258C35.457 15.9579 35.4246 15.99 35.3913 16.0231C35.312 16.0996 35.2301 16.172 35.1465 16.2438C34.9754 16.3922 34.8176 16.5527 34.6588 16.714C34.4808 16.8948 34.3021 17.0703 34.1096 17.2356C33.9665 17.363 33.8339 17.5012 33.6995 17.6377C33.5182 17.8218 33.3361 18.0008 33.1398 18.1691C33.0291 18.2668 32.9314 18.3769 32.8319 18.4858C32.758 18.5435 32.758 18.5435 32.6899 18.5361C32.6038 18.5034 32.5603 18.4654 32.4955 18.4002C32.4724 18.3772 32.4493 18.3542 32.4255 18.3305C32.3881 18.2924 32.3881 18.2924 32.3499 18.2535C32.3233 18.2269 32.2967 18.2003 32.2693 18.1728C32.1813 18.0845 32.0936 17.9958 32.0058 17.9071C31.9446 17.8456 31.8834 17.7842 31.8221 17.7227C31.6605 17.5606 31.4993 17.3981 31.3381 17.2356C31.0807 16.9761 30.8229 16.7171 30.565 16.4581C30.4752 16.3678 30.3855 16.2773 30.2958 16.1868C30.2402 16.1309 30.1847 16.075 30.1291 16.0191C30.1045 15.9942 30.0798 15.9692 30.0544 15.9435C29.942 15.8306 29.8284 15.7215 29.7076 15.6177C29.5286 15.4633 29.3634 15.2958 29.1968 15.1283C29.1612 15.0926 29.1256 15.0569 29.0899 15.0212C29.0137 14.9449 28.9375 14.8686 28.8614 14.7921C28.7408 14.6711 28.6201 14.5502 28.4994 14.4293C28.2213 14.1508 27.9434 13.8722 27.6656 13.5936C27.4107 13.338 27.1558 13.0825 26.9008 12.8272C26.781 12.7072 26.6613 12.5871 26.5416 12.467C26.4669 12.3921 26.3922 12.3172 26.3174 12.2424C26.2667 12.1916 26.2161 12.1407 26.1655 12.0899C26.0332 11.9575 25.9009 11.8271 25.759 11.7052C25.5815 11.5526 25.4181 11.3865 25.2532 11.2207C25.2175 11.185 25.1819 11.1493 25.1463 11.1136C25.0701 11.0373 24.9939 10.9609 24.9178 10.8845C24.7972 10.7634 24.6765 10.6425 24.5557 10.5216C24.2777 10.2432 23.9998 9.96456 23.7219 9.68594C23.4671 9.43039 23.2122 9.17488 22.9571 8.91951C22.8373 8.79955 22.7176 8.6795 22.598 8.55939C22.5233 8.48445 22.4485 8.40959 22.3738 8.33474C22.3231 8.28397 22.2725 8.2331 22.2219 8.18223C22.0644 8.02475 21.9048 7.87281 21.7358 7.72772C21.646 7.64949 21.562 7.56619 21.4779 7.4819C21.4605 7.46454 21.4431 7.44718 21.4252 7.42929C21.369 7.37306 21.3129 7.31671 21.2569 7.26035C21.2174 7.22088 21.178 7.18141 21.1386 7.14195C21.0357 7.03895 20.933 6.93585 20.8302 6.83273C20.725 6.72716 20.6197 6.6217 20.5144 6.51622C20.3084 6.30991 20.1026 6.10348 19.8968 5.89698C19.6938 6.06567 19.5071 6.24652 19.3211 6.43365C19.2722 6.48254 19.2234 6.53144 19.1746 6.58034C19.1225 6.63249 19.0706 6.68469 19.0186 6.7369C18.9098 6.84616 18.8008 6.95529 18.6919 7.0644C18.4409 7.31574 18.1902 7.56725 17.9394 7.81877C17.7095 8.04936 17.4796 8.27991 17.2495 8.51031C17.1414 8.61854 17.0335 8.72685 16.9256 8.83523C16.8745 8.88653 16.8233 8.93778 16.7722 8.98902C16.7101 9.05115 16.6481 9.11335 16.5862 9.17562C16.4644 9.2975 16.3424 9.41702 16.2112 9.52885C15.9889 9.72034 15.7856 9.93232 15.5786 10.1401C15.5304 10.1884 15.4822 10.2367 15.4339 10.2849C15.3305 10.3885 15.2271 10.492 15.1238 10.5957C14.9602 10.7597 14.7965 10.9236 14.6328 11.0875C14.2853 11.4354 13.9379 11.7834 13.5905 12.1314C13.2154 12.5072 12.8403 12.883 12.4651 13.2586C12.3025 13.4214 12.14 13.5842 11.9776 13.7471C11.8763 13.8486 11.775 13.95 11.6737 14.0514C11.6269 14.0982 11.5802 14.1451 11.5335 14.192C11.1363 14.5907 11.1363 14.5907 10.9794 14.7245C10.7583 14.913 10.5576 15.1241 10.3527 15.3298C10.3041 15.3785 10.2556 15.4271 10.207 15.4757C10.1028 15.58 9.99863 15.6844 9.89454 15.7888C9.72978 15.954 9.56488 16.1191 9.39995 16.2841C9.04989 16.6346 8.69998 16.9851 8.35008 17.3357C7.97228 17.7142 7.59445 18.0928 7.21644 18.4711C7.05267 18.635 6.88898 18.799 6.72536 18.9631C6.62339 19.0654 6.52135 19.1675 6.41928 19.2696C6.37216 19.3168 6.32507 19.364 6.27802 19.4113C6.07119 19.6189 5.86571 19.8252 5.64247 20.0153C5.52167 20.1211 5.41029 20.2365 5.29773 20.3509C5.25799 20.3911 5.25799 20.3911 5.21744 20.4321C5.16043 20.4897 5.10346 20.5473 5.04653 20.605C4.9255 20.7275 4.80413 20.8497 4.68279 20.9719C4.45727 21.199 4.2319 21.4262 4.00711 21.6541C3.85028 21.813 3.69304 21.9714 3.5355 22.1296C3.47556 22.19 3.41578 22.2505 3.35617 22.3112C3.27316 22.3956 3.18962 22.4795 3.10594 22.5633C3.08132 22.5886 3.05669 22.6139 3.03132 22.64C3.00852 22.6626 2.98572 22.6852 2.96222 22.7085C2.94255 22.7284 2.92288 22.7483 2.90261 22.7687C2.84319 22.8064 2.84319 22.8064 2.76948 22.798C2.22637 22.5826 1.7117 21.8919 1.30659 21.4831C1.20067 21.3763 1.09462 21.2695 0.9885 21.1629C0.964882 21.1389 0.941264 21.115 0.91693 21.0904C0.778728 20.9515 0.636562 20.8201 0.487235 20.6932C0.244344 20.4756 0.0316519 20.117 -0.00585938 19.7905C0.00501019 19.6708 0.0683075 19.6219 0.155855 19.5453C0.179198 19.5263 0.202542 19.5074 0.226593 19.4878C0.276411 19.4444 0.326124 19.4009 0.375743 19.3573C0.414913 19.3233 0.414913 19.3233 0.454875 19.2887C0.585512 19.1725 0.708134 19.0487 0.831182 18.9246C0.856737 18.899 0.882293 18.8734 0.908622 18.847C0.961925 18.7936 1.01518 18.7402 1.0684 18.6867C1.15335 18.6012 1.23842 18.516 1.32352 18.4307C1.50376 18.2501 1.68386 18.0693 1.86394 17.8885C2.07378 17.6779 2.28367 17.4673 2.49372 17.2569C2.57708 17.1733 2.66032 17.0896 2.74356 17.0059C2.79497 16.9544 2.84638 16.9029 2.89779 16.8513C2.92052 16.8284 2.94324 16.8055 2.96666 16.7819C3.07595 16.6726 3.18698 16.5674 3.304 16.4664C3.45247 16.3381 3.59112 16.2016 3.72932 16.0624C3.76924 16.0224 3.76924 16.0224 3.80997 15.9816C3.86727 15.9242 3.92453 15.8667 3.98175 15.8092C4.07251 15.718 4.16337 15.6269 4.25427 15.5358C4.44721 15.3425 4.64 15.1491 4.83278 14.9556C5.05631 14.7313 5.27989 14.507 5.50363 14.2828C5.59281 14.1934 5.68189 14.1039 5.77096 14.0144C5.82604 13.9592 5.88114 13.904 5.93624 13.8488C5.96068 13.8242 5.98513 13.7996 6.01031 13.7742C6.14628 13.6382 6.28632 13.5099 6.43184 13.3842C6.55449 13.2755 6.66932 13.1591 6.78475 13.0429C6.81137 13.0162 6.83798 12.9895 6.8654 12.9621C6.9227 12.9046 6.97997 12.8472 7.03719 12.7896C7.12794 12.6984 7.21881 12.6074 7.30971 12.5163C7.50264 12.323 7.69544 12.1295 7.88821 11.9361C8.11174 11.7117 8.33533 11.4874 8.55907 11.2633C8.64825 11.1739 8.73732 11.0844 8.82639 10.9949C8.88148 10.9397 8.93657 10.8845 8.99167 10.8293C9.01612 10.8046 9.04056 10.78 9.06575 10.7546C9.20178 10.6186 9.34189 10.4902 9.48748 10.3645C9.60893 10.2569 9.72265 10.1417 9.83693 10.0266C9.87633 9.9871 9.87633 9.9871 9.91653 9.94683C9.97307 9.89015 10.0296 9.83344 10.086 9.77669C10.1756 9.68668 10.2653 9.59679 10.355 9.50693C10.5454 9.31614 10.7356 9.12522 10.9259 8.93428C11.1465 8.71287 11.3671 8.49152 11.5879 8.27032C11.6759 8.1821 11.7638 8.09378 11.8517 8.00545C11.9061 7.95096 11.9605 7.89647 12.0148 7.84199C12.039 7.81769 12.0631 7.7934 12.0879 7.76837C12.2007 7.65562 12.3149 7.5467 12.4356 7.44248C12.5839 7.31448 12.7222 7.17823 12.8601 7.0393C12.8867 7.01264 12.9133 6.98597 12.9407 6.9585C12.998 6.90107 13.0553 6.8436 13.1125 6.78609C13.2033 6.69489 13.2942 6.60381 13.3851 6.51275C13.578 6.31944 13.7708 6.12598 13.9636 5.9325C14.1871 5.70816 14.4107 5.48388 14.6344 5.25974C14.7236 5.17034 14.8127 5.08084 14.9017 4.99133C14.9568 4.93612 15.0119 4.88091 15.067 4.82571C15.1037 4.78877 15.1037 4.78877 15.1411 4.75109C15.2771 4.61512 15.4171 4.48677 15.5626 4.36114C15.6853 4.25241 15.8001 4.13605 15.9155 4.01976C15.9421 3.9931 15.9688 3.96643 15.9962 3.93896C16.0535 3.88153 16.1107 3.82406 16.168 3.76656C16.2587 3.67536 16.3496 3.58427 16.4405 3.49321C16.6334 3.2999 16.8262 3.10644 17.019 2.91297C17.2425 2.68862 17.4661 2.46434 17.6899 2.2402C17.779 2.15081 17.8681 2.0613 17.9572 1.97179C18.0123 1.91658 18.0674 1.86137 18.1225 1.80617C18.1469 1.78155 18.1713 1.75692 18.1965 1.73155C18.3351 1.59296 18.4778 1.46153 18.6261 1.33349C18.6997 1.26936 18.7696 1.20237 18.8385 1.13324C18.8769 1.09486 18.8769 1.09486 18.916 1.05571C18.9425 1.02902 18.9691 1.00233 18.9964 0.974828C19.0244 0.946794 19.0523 0.91876 19.0812 0.889877C19.1696 0.801298 19.2578 0.712596 19.3461 0.62389C19.4064 0.563403 19.4667 0.502924 19.5271 0.442454C19.6741 0.295063 19.821 0.147572 19.9678 0Z" fill="#0A0A0A"/>
<path d="M37.1269 17.1211C37.1524 17.1466 37.1778 17.172 37.204 17.1983C37.2998 17.294 37.3958 17.3894 37.4919 17.4848C37.5458 17.5384 37.5996 17.592 37.6534 17.6456C37.6901 17.6821 37.7268 17.7186 37.7636 17.755C37.952 17.9419 38.137 18.1294 38.3096 18.3313C38.4299 18.4671 38.5609 18.5926 38.6902 18.7197C38.9945 19.0189 38.9945 19.0189 39.132 19.1798C39.2269 19.2904 39.3271 19.3926 39.4318 19.494C39.4616 19.5229 39.4914 19.5518 39.5222 19.5815C39.5842 19.6413 39.6464 19.7008 39.709 19.76C39.7384 19.7887 39.7679 19.8174 39.7982 19.847C39.8251 19.8727 39.852 19.8985 39.8797 19.925C39.9337 19.9985 39.9337 19.9985 39.9257 20.0669C39.8941 20.1514 39.8583 20.1937 39.7946 20.2572C39.7725 20.2794 39.7505 20.3017 39.7278 20.3246C39.7034 20.3486 39.6791 20.3727 39.654 20.3974C39.6285 20.423 39.6029 20.4486 39.5766 20.475C39.4919 20.5598 39.4068 20.6442 39.3218 20.7286C39.2627 20.7875 39.2037 20.8464 39.1447 20.9054C39.0209 21.0291 38.8968 21.1526 38.7726 21.276C38.6139 21.4337 38.4555 21.5916 38.2973 21.7497C38.1459 21.9009 37.9944 22.0518 37.8429 22.2028C37.8142 22.2314 37.7855 22.2601 37.7559 22.2896C37.674 22.3713 37.5919 22.4528 37.5098 22.5344C37.486 22.5582 37.4621 22.582 37.4376 22.6065C37.3276 22.7154 37.2164 22.821 37.0989 22.9217C36.9584 23.0441 36.8257 23.1723 36.6945 23.3044C36.6705 23.3283 36.6465 23.3523 36.6218 23.377C36.5422 23.4566 36.4628 23.5363 36.3834 23.6159C36.3261 23.6733 36.2687 23.7307 36.2114 23.7881C36.0883 23.9113 35.9653 24.0345 35.8423 24.1578C35.6476 24.3529 35.4529 24.5478 35.2581 24.7427C34.985 25.0161 34.7119 25.2895 34.4389 25.563C34.4216 25.5803 34.4043 25.5976 34.3864 25.6155C34.2637 25.7384 34.1409 25.8614 34.0182 25.9843C33.878 26.1248 33.7377 26.2652 33.5975 26.4057C33.5716 26.4316 33.5716 26.4316 33.5452 26.4581C33.2566 26.7471 32.968 27.036 32.6794 27.3248C32.4859 27.5185 32.2925 27.7122 32.0992 27.906C31.9788 28.0267 31.8583 28.1472 31.7378 28.2678C31.6821 28.3236 31.6264 28.3794 31.5707 28.4352C31.4945 28.5117 31.4182 28.588 31.3419 28.6643C31.3092 28.6972 31.3092 28.6972 31.2759 28.7307C31.1461 28.8602 31.0115 28.9819 30.8728 29.1018C30.7606 29.2012 30.6551 29.3069 30.5494 29.4131C30.5256 29.437 30.5017 29.4608 30.4772 29.4853C30.3981 29.5644 30.3192 29.6436 30.2402 29.7228C30.1833 29.7798 30.1263 29.8369 30.0693 29.8939C29.947 30.0163 29.8247 30.1388 29.7024 30.2614C29.509 30.4552 29.3155 30.649 29.1219 30.8427C28.8504 31.1144 28.579 31.3861 28.3076 31.6579C28.2904 31.6751 28.2733 31.6924 28.2555 31.7101C28.1335 31.8323 28.0115 31.9545 27.8895 32.0767C27.7502 32.2163 27.6108 32.3559 27.4715 32.4954C27.4543 32.5126 27.4371 32.5298 27.4194 32.5476C27.1327 32.8348 26.8458 33.1219 26.559 33.409C26.3667 33.6015 26.1745 33.794 25.9823 33.9866C25.8626 34.1065 25.7429 34.2264 25.6231 34.3462C25.5678 34.4016 25.5124 34.4571 25.4571 34.5126C25.3814 34.5885 25.3056 34.6644 25.2297 34.7402C25.208 34.762 25.1864 34.7838 25.1641 34.8062C25.0338 34.9362 24.8988 35.0583 24.7596 35.1787C24.6617 35.265 24.5697 35.3564 24.478 35.4492C24.4585 35.4689 24.4389 35.4885 24.4187 35.5088C24.354 35.5738 24.2895 35.639 24.225 35.7041C24.1783 35.7511 24.1315 35.7981 24.0848 35.8451C23.9847 35.9458 23.8846 36.0465 23.7846 36.1473C23.6265 36.3065 23.4682 36.4655 23.3098 36.6245C23.2831 36.6514 23.2563 36.6783 23.2287 36.706C23.174 36.7609 23.1193 36.8158 23.0646 36.8707C22.6962 37.2406 22.328 37.6106 21.9603 37.9811C21.7118 38.2315 21.463 38.4816 21.2138 38.7313C21.0821 38.8634 20.9504 38.9957 20.8192 39.1283C20.6961 39.2528 20.5725 39.3769 20.4486 39.5006C20.4032 39.5462 20.3578 39.5919 20.3127 39.6378C20.2512 39.7002 20.1893 39.762 20.1271 39.8238C20.1092 39.8422 20.0913 39.8607 20.0728 39.8797C19.9514 39.9987 19.9514 39.9987 19.8544 39.998C19.7829 39.9597 19.7398 39.923 19.6858 39.8625C19.6558 39.8296 19.6558 39.8296 19.6252 39.796C19.6031 39.7713 19.581 39.7466 19.5582 39.7211C19.2994 39.4397 19.0327 39.1673 18.7622 38.8972C18.7412 38.8763 18.7203 38.8554 18.6987 38.8338C18.5645 38.6998 18.4302 38.5659 18.2959 38.4321C18.1767 38.3132 18.0575 38.1942 17.9384 38.0752C17.6368 37.7741 17.3351 37.4731 17.0334 37.1722C16.7064 36.846 16.3794 36.5197 16.0526 36.1933C15.9113 36.0523 15.77 35.9114 15.6287 35.7705C15.5408 35.6828 15.4529 35.5951 15.3651 35.5074C15.3246 35.467 15.2841 35.4266 15.2436 35.3863C14.8996 35.0439 14.8996 35.0439 14.763 34.8842C14.5876 34.6794 14.3932 34.4924 14.2023 34.3023C14.1585 34.2587 14.1148 34.215 14.071 34.1713C13.9773 34.0777 13.8836 33.9842 13.7897 33.8907C13.6412 33.7427 13.4928 33.5945 13.3444 33.4463C13.0295 33.1317 12.7143 32.8174 12.3992 32.503C12.0589 32.1635 11.7186 31.824 11.3785 31.4843C11.2312 31.3372 11.0838 31.1902 10.9364 31.0432C10.8445 30.9516 10.7526 30.8599 10.6608 30.7682C10.6184 30.7259 10.576 30.6836 10.5336 30.6413C10.3424 30.451 10.1543 30.2605 9.9788 30.0554C9.82055 29.8781 9.64865 29.713 9.48025 29.5454C9.43686 29.5021 9.39347 29.4587 9.35009 29.4154C9.25713 29.3226 9.16411 29.2298 9.07106 29.137C8.92372 28.9902 8.77652 28.8432 8.62934 28.6962C8.31689 28.3842 8.0043 28.0724 7.69169 27.7605C7.35413 27.4238 7.0166 27.087 6.67924 26.7501C6.53312 26.6042 6.38691 26.4583 6.24063 26.3126C6.14946 26.2217 6.05836 26.1307 5.96728 26.0397C5.92525 25.9977 5.88319 25.9558 5.8411 25.9139C5.64584 25.7196 5.45179 25.5257 5.27357 25.3153C5.17958 25.2064 5.07714 25.1057 4.9753 25.0042C4.95295 24.9818 4.9306 24.9595 4.90758 24.9364C4.8609 24.8897 4.81418 24.8431 4.76741 24.7964C4.69564 24.7249 4.62406 24.6531 4.5525 24.5813C4.50692 24.5358 4.46133 24.4902 4.41573 24.4447C4.39434 24.4233 4.37295 24.4018 4.35091 24.3797C4.24597 24.2719 4.24597 24.2719 4.12109 24.1904C4.16855 24.0846 4.2203 24.0113 4.30318 23.9306C4.32232 23.9117 4.34146 23.8928 4.36119 23.8733C4.43013 23.8095 4.50039 23.7483 4.57158 23.6871C4.73724 23.5428 4.89087 23.3878 5.04483 23.2312C5.21702 23.0561 5.39052 22.887 5.57678 22.7269C5.71347 22.6053 5.84031 22.4735 5.96857 22.3431C6.14265 22.1661 6.31812 21.9951 6.50656 21.8334C6.62838 21.7251 6.73869 21.6049 6.84873 21.4847C6.90174 21.4295 6.90174 21.4295 6.99889 21.3484C7.13124 21.349 7.20346 21.434 7.29306 21.5231C7.31237 21.5429 7.33168 21.5626 7.35157 21.583C7.37227 21.6037 7.39297 21.6245 7.4143 21.6458C7.48278 21.7145 7.55087 21.7836 7.61897 21.8527C7.66665 21.9007 7.71435 21.9486 7.76209 21.9965C7.8879 22.1229 8.01341 22.2496 8.13884 22.3764C8.33901 22.5787 8.53962 22.7805 8.74026 22.9823C8.81002 23.0525 8.87964 23.1229 8.94925 23.1933C8.99258 23.237 9.03593 23.2807 9.07927 23.3243C9.1078 23.3533 9.1078 23.3533 9.13691 23.3829C9.23554 23.4821 9.33644 23.5764 9.44253 23.6675C9.61875 23.8201 9.78207 23.9848 9.94635 24.15C9.98093 24.1846 10.0155 24.2193 10.0501 24.2539C10.1241 24.3279 10.1979 24.402 10.2718 24.4762C10.3888 24.5937 10.5059 24.711 10.6231 24.8283C10.8929 25.0985 11.1625 25.3689 11.4322 25.6393C11.6795 25.8872 11.9268 26.1352 12.1743 26.383C12.2905 26.4994 12.4067 26.6159 12.5227 26.7324C12.5952 26.8052 12.6678 26.8778 12.7403 26.9504C12.7895 26.9997 12.8385 27.049 12.8876 27.0984C13.0177 27.2285 13.1479 27.3564 13.2874 27.4763C13.4614 27.6259 13.6217 27.7884 13.7834 27.951C13.818 27.9857 13.8526 28.0203 13.8872 28.0549C13.9611 28.129 14.035 28.2031 14.1089 28.2772C14.2259 28.3947 14.343 28.5121 14.4602 28.6294C14.73 28.8996 14.9996 29.1699 15.2692 29.4403C15.5165 29.6883 15.7639 29.9363 16.0113 30.1841C16.1276 30.3005 16.2437 30.4169 16.3598 30.5335C16.4323 30.6062 16.5048 30.6789 16.5774 30.7515C16.6265 30.8008 16.6756 30.8501 16.7247 30.8994C16.8781 31.0529 17.0339 31.2003 17.1985 31.3417C17.3196 31.4485 17.4328 31.5633 17.5467 31.6778C17.5731 31.7042 17.5995 31.7305 17.6266 31.7577C17.7128 31.8439 17.7989 31.9303 17.885 32.0166C17.9451 32.0768 18.0052 32.137 18.0654 32.1971C18.2229 32.3548 18.3804 32.5126 18.5378 32.6703C18.6987 32.8316 18.8598 32.9928 19.0208 33.154C19.3362 33.4697 19.6515 33.7856 19.9667 34.1016C20.1126 34.0438 20.2101 33.9389 20.3182 33.8294C20.3391 33.8087 20.3599 33.7879 20.3813 33.7665C20.4511 33.6968 20.5206 33.6268 20.5901 33.5568C20.6401 33.5068 20.69 33.4568 20.74 33.4068C20.8477 33.299 20.9552 33.1912 21.0627 33.0832C21.2327 32.9124 21.403 32.7419 21.5733 32.5713C21.8429 32.3014 22.1123 32.0313 22.3816 31.7611C22.8634 31.2778 23.3454 30.7947 23.8276 30.3118C23.9967 30.1424 24.1657 29.9729 24.3347 29.8033C24.4401 29.6975 24.5455 29.5918 24.651 29.4862C24.6997 29.4373 24.7484 29.3885 24.7971 29.3396C25.2123 28.9223 25.2123 28.9223 25.4337 28.7338C25.6284 28.5599 25.8093 28.3705 25.9935 28.1856C26.0421 28.1369 26.0907 28.0883 26.1393 28.0397C26.2434 27.9354 26.3476 27.831 26.4517 27.7266C26.6164 27.5614 26.7813 27.3963 26.9463 27.2313C27.2963 26.8808 27.6462 26.5303 27.9961 26.1797C28.3739 25.8012 28.7518 25.4227 29.1298 25.0443C29.2935 24.8804 29.4572 24.7164 29.6209 24.5523C29.7228 24.4501 29.8249 24.3479 29.9269 24.2458C29.9741 24.1986 30.0211 24.1514 30.0682 24.1041C30.271 23.9005 30.4725 23.6989 30.6914 23.5123C30.8862 23.3381 31.0673 23.1486 31.2517 22.9635C31.3003 22.9149 31.3489 22.8663 31.3974 22.8176C31.5016 22.7134 31.6058 22.609 31.7099 22.5046C31.8746 22.3394 32.0395 22.1743 32.2045 22.0092C32.5545 21.6588 32.9044 21.3083 33.2543 20.9577C33.6321 20.5791 34.01 20.2006 34.388 19.8223C34.5517 19.6584 34.7154 19.4943 34.879 19.3303C34.981 19.228 35.0831 19.1259 35.1851 19.0238C35.2322 18.9766 35.2793 18.9294 35.3264 18.8821C35.7578 18.449 35.7578 18.449 35.9674 18.2725C36.0822 18.1735 36.1876 18.0647 36.2942 17.9572C36.3183 17.9331 36.3423 17.909 36.3671 17.8842C36.4428 17.8082 36.5184 17.7322 36.594 17.6562C36.6457 17.6042 36.6975 17.5523 36.7493 17.5004C36.8753 17.3741 37.0011 17.2476 37.1269 17.1211Z" fill="#0A0A0A"/>
<path d="M95.1087 9.27067C96.1368 9.26817 97.165 9.2663 98.1931 9.26515C98.2885 9.26504 98.3838 9.26493 98.4791 9.26482C98.5028 9.26479 98.5265 9.26476 98.5509 9.26473C98.9091 9.2643 99.2673 9.26355 99.6255 9.26263C100.042 9.26156 100.459 9.26088 100.875 9.26064C101.095 9.26051 101.315 9.26018 101.536 9.2594C101.744 9.25867 101.952 9.25846 102.16 9.25862C102.235 9.25859 102.311 9.25838 102.387 9.25797C103.054 9.2545 103.717 9.30912 104.366 9.47271C104.421 9.48633 104.421 9.48633 104.477 9.50023C105.825 9.84687 106.972 10.5526 107.97 11.5087C108.01 11.5465 108.01 11.5465 108.051 11.585C108.95 12.4559 109.603 13.6481 110.031 14.8124C110.04 14.8375 110.049 14.8625 110.059 14.8884C110.342 15.6439 110.516 16.4622 110.599 17.2636C110.602 17.2942 110.606 17.3249 110.609 17.3564C110.855 19.9088 110.129 22.3801 108.501 24.3586C108.169 24.756 107.812 25.1167 107.401 25.4341C107.383 25.4489 107.364 25.4637 107.344 25.479C105.26 27.1117 102.52 27.3259 99.9672 27.3235C99.9282 27.3235 99.8893 27.3235 99.8491 27.3235C99.0067 27.3226 98.1644 27.3085 97.3222 27.2922C97.1731 27.2894 97.0239 27.2867 96.8748 27.2842C96.697 27.2812 96.5193 27.2777 96.3415 27.2738C96.2752 27.2725 96.2089 27.2713 96.1427 27.2702C96.051 27.2688 95.9594 27.2667 95.8678 27.2644C95.8412 27.2641 95.8146 27.2639 95.7872 27.2636C95.5727 27.2572 95.4116 27.2072 95.2397 27.0771C95.0993 26.8899 95.0984 26.669 95.0999 26.4449C95.0998 26.4151 95.0998 26.3853 95.0997 26.3546C95.0995 26.2548 95.0998 26.1549 95.1001 26.055C95.1001 25.9827 95.1 25.9104 95.0999 25.8381C95.0998 25.6394 95.1001 25.4407 95.1004 25.242C95.1007 25.0277 95.1006 24.8134 95.1006 24.5991C95.1005 24.2279 95.1007 23.8566 95.1011 23.4854C95.1016 23.096 95.1018 22.7066 95.1019 22.3173C95.1019 22.2931 95.1019 22.2689 95.1019 22.2439C95.102 22.1209 95.102 21.998 95.102 21.875C95.1021 21.0041 95.1026 20.1333 95.1033 19.2624C95.1039 18.4164 95.1045 17.5704 95.1048 16.7243C95.1048 16.6983 95.1048 16.6722 95.1048 16.6453C95.1049 16.3834 95.105 16.1215 95.1051 15.8596C95.1052 15.326 95.1054 14.7925 95.1056 14.259C95.1057 14.2344 95.1057 14.2099 95.1057 14.1846C95.1063 12.5467 95.1075 10.9087 95.1087 9.27067ZM99.1234 12.7875C99.0128 13.1191 99.0424 13.5129 99.0326 13.8594C99.0318 13.8846 99.0311 13.9099 99.0303 13.9359C99.0143 14.4888 99.0112 15.0416 99.0123 15.5947C99.0125 15.6756 99.0126 15.7565 99.0126 15.8375C99.0137 17.0689 99.0287 18.3002 99.0464 19.5316C99.0493 19.7347 99.0521 19.9379 99.0548 20.1411C99.0778 21.9352 99.0778 21.9352 99.1234 23.7289C99.4409 23.7306 99.7585 23.7318 100.076 23.7326C100.224 23.733 100.371 23.7335 100.519 23.7343C101.361 23.739 101.361 23.739 102.202 23.6981C102.238 23.6954 102.273 23.6927 102.31 23.69C103.413 23.5934 104.397 23.1346 105.199 22.379C105.225 22.3559 105.25 22.3328 105.277 22.3089C106.232 21.4171 106.709 19.976 106.768 18.6994C106.819 17.006 106.417 15.3899 105.248 14.1204C104.443 13.2677 103.327 12.8374 102.165 12.7836C101.947 12.7779 101.729 12.7794 101.51 12.7806C101.441 12.7807 101.372 12.7808 101.303 12.7809C101.122 12.7812 100.942 12.7819 100.761 12.7827C100.577 12.7834 100.392 12.7837 100.207 12.7841C99.8458 12.7848 99.4846 12.786 99.1234 12.7875Z" fill="#0A0A0A"/>
<path d="M78.0905 9.23735C78.126 9.27288 78.126 9.27288 78.1303 9.3756C78.1302 9.42159 78.1301 9.46758 78.13 9.51496C78.1301 9.54026 78.1301 9.56556 78.1301 9.59163C78.13 9.67562 78.1298 9.75962 78.1295 9.84362C78.1294 9.90171 78.1294 9.9598 78.1293 10.0179C78.1292 10.1711 78.1288 10.3243 78.1285 10.4774C78.1281 10.6336 78.1279 10.7898 78.1277 10.946C78.1274 11.2527 78.1268 11.5594 78.126 11.8661C78.1003 11.8688 78.0745 11.8715 78.048 11.8742C77.9289 11.8868 77.8098 11.8997 77.6908 11.9128C77.6301 11.919 77.6301 11.919 77.5681 11.9254C77.027 11.9854 76.4348 12.1043 76.0654 12.5411C75.8895 12.7928 75.767 13.0588 75.663 13.3465C75.6471 13.3901 75.6471 13.3901 75.6309 13.4347C75.5203 13.7413 75.4218 14.0516 75.3235 14.3623C74.9434 15.5581 74.4536 16.6681 73.8261 17.7563C73.8089 17.7865 73.7918 17.8167 73.7741 17.8479C73.7366 17.9128 73.6979 17.9772 73.6584 18.0409C73.5301 18.2473 73.5301 18.2473 73.5047 18.4822C73.5438 18.6188 73.5905 18.7433 73.6561 18.8688C73.6683 18.8926 73.6805 18.9165 73.6931 18.941C73.9696 19.4654 74.3112 19.9555 74.6562 20.4366C74.7377 20.5503 74.816 20.6658 74.8929 20.7826C75.0391 21.0039 75.1923 21.2199 75.3456 21.4362C75.5297 21.6958 75.7118 21.9567 75.894 22.2176C75.9572 22.3079 76.0207 22.3981 76.0842 22.4882C76.7195 23.392 77.3501 24.3076 77.9128 25.2587C77.9395 25.3034 77.9395 25.3034 77.9668 25.3491C78.8366 26.8137 78.8366 26.8137 78.8366 27.248C78.2615 27.268 77.6866 27.283 77.1113 27.2922C76.8441 27.2966 76.5772 27.3025 76.3101 27.3123C76.0771 27.3209 75.8443 27.3263 75.6112 27.3282C75.4878 27.3293 75.3649 27.3319 75.2416 27.3382C74.6235 27.3683 74.6235 27.3683 74.36 27.248C74.1407 27.0461 74.0263 26.7785 73.9131 26.5079C73.8289 26.3204 73.7189 26.1494 73.6095 25.9758C73.5678 25.9079 73.5262 25.8399 73.4847 25.7718C73.3417 25.5396 73.1961 25.309 73.0499 25.0787C72.8333 24.7373 72.6198 24.394 72.406 24.0509C72.3865 24.0196 72.367 23.9884 72.347 23.9562C70.2032 20.5137 70.2032 20.5137 70.2032 20.0366C69.2066 20.0366 68.2101 20.0366 67.1833 20.0366C67.1833 22.4164 67.1833 24.7961 67.1833 27.248C63.7829 27.3716 63.7829 27.3716 63.3462 27.0704C63.1719 26.8621 63.1633 26.6883 63.1642 26.4253C63.1642 26.3957 63.1641 26.366 63.1641 26.3355C63.164 26.2356 63.1642 26.1358 63.1643 26.0359C63.1643 25.9638 63.1643 25.8917 63.1642 25.8197C63.1641 25.6211 63.1643 25.4226 63.1645 25.224C63.1646 25.0101 63.1646 24.7962 63.1645 24.5823C63.1645 24.2115 63.1646 23.8407 63.1648 23.4699C63.165 23.0809 63.1652 22.692 63.1652 22.303C63.1652 22.2789 63.1652 22.2547 63.1652 22.2298C63.1652 22.107 63.1652 21.9843 63.1653 21.8615C63.1653 20.9918 63.1656 20.122 63.1659 19.2523C63.1662 18.4073 63.1665 17.5622 63.1666 16.7172C63.1666 16.6912 63.1666 16.6651 63.1666 16.6383C63.1667 16.3768 63.1667 16.1153 63.1668 15.8538C63.1669 15.321 63.167 14.7883 63.1671 14.2555C63.1671 14.231 63.1671 14.2065 63.1671 14.1813C63.1674 12.5452 63.168 10.909 63.1686 9.27288C64.4934 9.27288 65.8183 9.27288 67.1833 9.27288C67.1846 9.77046 67.1859 10.268 67.1873 10.7807C67.1884 11.0954 67.1895 11.4101 67.1907 11.7249C67.1927 12.2247 67.1945 12.7245 67.1956 13.2244C67.1964 13.5884 67.1976 13.9524 67.1992 14.3164C67.2001 14.5091 67.2007 14.7019 67.201 14.8946C67.2012 15.0761 67.2019 15.2575 67.203 15.4389C67.2033 15.5055 67.2034 15.5721 67.2034 15.6387C67.2033 15.7296 67.2039 15.8205 67.2047 15.9114C67.2045 15.9378 67.2043 15.9641 67.2041 15.9912C67.2064 16.1576 67.2382 16.2716 67.3254 16.4132C67.3881 16.4661 67.3881 16.4661 67.4609 16.4953C67.4838 16.5062 67.5067 16.5171 67.5304 16.5282C68.2433 16.7717 69.1362 16.5143 69.8301 16.3244C69.8673 16.3143 69.9044 16.3042 69.9426 16.2938C70.4279 16.1547 70.6995 15.9114 70.9507 15.4749C71.3734 14.7124 71.5731 13.8284 71.8086 12.994C71.9876 12.3604 72.1797 11.7448 72.477 11.1556C72.4967 11.1159 72.5164 11.0762 72.5367 11.0352C72.971 10.1907 73.6551 9.52125 74.5576 9.20627C75.7039 8.85602 76.9392 8.95009 78.0905 9.23735Z" fill="#0A0A0A"/>
<path d="M52.7005 8.37113C52.7543 8.37116 52.7543 8.37116 52.8092 8.37119C53.3958 8.37264 53.9613 8.40487 54.5369 8.52655C54.5739 8.53435 54.611 8.54215 54.6491 8.55019C56.1735 8.88265 57.9328 9.5906 58.8258 10.9414C59.2589 11.6242 59.744 12.6344 59.653 13.4644C59.6049 13.625 59.5391 13.7247 59.411 13.8329C59.0484 14.0177 58.6467 14.0032 58.2496 14.0017C58.181 14.0015 58.181 14.0015 58.1109 14.0012C57.9617 14.0005 57.8126 13.999 57.6634 13.9972C57.6371 13.9969 57.6109 13.9966 57.5838 13.9963C57.4237 13.9943 57.2636 13.9915 57.1035 13.9878C57.0523 13.9867 57.0012 13.9858 56.95 13.985C56.5749 13.9788 56.3226 13.9521 56.0397 13.6945C55.9116 13.5564 55.8028 13.4047 55.6914 13.2531C55.1175 12.4737 54.4007 12.0954 53.4554 11.9456C52.429 11.8042 51.4585 11.9182 50.6033 12.5399C50.5147 12.609 50.4292 12.6801 50.3446 12.7539C50.3224 12.7731 50.3002 12.7924 50.2773 12.8122C49.9448 13.1214 49.7047 13.5258 49.6562 13.98C49.6407 14.4268 49.7865 14.7281 50.0805 15.0535C50.5604 15.5216 51.2845 15.7204 51.9211 15.8577C51.9563 15.8653 51.9914 15.8729 52.0276 15.8807C52.4211 15.9642 52.8172 16.0324 53.2136 16.1C57.6133 16.8522 57.6133 16.8522 58.8003 17.9049C58.8296 17.9307 58.8589 17.9564 58.8891 17.983C59.8698 18.904 60.1415 20.3221 60.1904 21.6104C60.2294 22.9947 59.8654 24.0988 58.9069 25.1162C58.8864 25.139 58.866 25.1618 58.8449 25.1852C58.0872 25.9935 56.9949 26.4872 55.9581 26.8214C55.9333 26.8296 55.9085 26.8379 55.883 26.8463C53.6058 27.5991 50.8867 27.4497 48.7353 26.3768C47.3985 25.6872 46.394 24.5942 45.9253 23.1588C45.8307 22.8551 45.7669 22.5539 45.7259 22.2388C45.719 22.1946 45.719 22.1946 45.712 22.1496C45.6883 21.981 45.689 21.8129 45.6897 21.6429C45.6897 21.6182 45.6898 21.5935 45.6898 21.5681C45.69 21.5074 45.6902 21.4468 45.6904 21.3862C45.9511 21.3846 46.2119 21.3833 46.4726 21.3825C46.5938 21.3822 46.7151 21.3817 46.8363 21.3809C47.3487 21.3776 47.8586 21.382 48.37 21.4176C48.4104 21.4204 48.4508 21.4231 48.4924 21.426C49.1145 21.4744 49.1145 21.4744 49.3498 21.6704C49.4342 21.7897 49.4767 21.9052 49.5144 22.0459C49.6392 22.5091 49.8925 22.8677 50.306 23.1187C51.581 23.8039 53.3643 23.8958 54.7434 23.511C55.3207 23.3345 55.8694 23.0537 56.1661 22.5023C56.417 21.9722 56.3934 21.3702 56.2001 20.8223C56.1134 20.6151 56.0046 20.4488 55.8515 20.285C55.8342 20.2662 55.8168 20.2474 55.799 20.2281C54.9867 19.4492 53.5651 19.4258 52.5185 19.2908C51.4796 19.1568 50.4545 19.0179 49.4564 18.6864C49.4158 18.673 49.4158 18.673 49.3743 18.6592C49.0066 18.5348 48.6615 18.3719 48.3195 18.1891C48.2976 18.1774 48.2757 18.1658 48.2531 18.1538C47.947 17.9897 47.6663 17.8031 47.3957 17.5852C47.3655 17.561 47.3655 17.561 47.3346 17.5363C46.5204 16.8803 46.071 16.0789 45.9467 15.0308C45.7945 13.5441 45.8757 12.0259 46.8406 10.8143C47.8846 9.55042 49.3728 8.84338 50.9574 8.51767C50.9834 8.5123 51.0093 8.50693 51.0361 8.5014C51.5894 8.39455 52.1383 8.36999 52.7005 8.37113Z" fill="#0A0A0A"/>
<path d="M20.1802 8.56271C20.2584 8.6242 20.2584 8.6242 20.3364 8.70384C20.3652 8.73289 20.394 8.76195 20.4236 8.79188C20.4532 8.8225 20.4828 8.85311 20.5132 8.88465C20.5426 8.9143 20.5719 8.94395 20.6021 8.9745C20.7319 9.10672 20.859 9.24018 20.9798 9.38074C21.1249 9.54906 21.2831 9.70355 21.4414 9.85934C21.6226 10.0376 21.7986 10.2167 21.9642 10.4096C22.0856 10.5461 22.2172 10.6727 22.3474 10.8007C22.5454 10.9954 22.7362 11.1927 22.9159 11.4046C22.8651 11.5205 22.8032 11.5968 22.7135 11.6855C22.6865 11.7123 22.6596 11.7391 22.6319 11.7668C22.6027 11.7954 22.5735 11.8241 22.5435 11.8537C22.5134 11.8836 22.4834 11.9134 22.4524 11.9442C22.3561 12.0398 22.2596 12.1352 22.1631 12.2306C22.0672 12.3254 21.9714 12.4204 21.8757 12.5154C21.8162 12.5745 21.7565 12.6335 21.6968 12.6924C21.5755 12.8126 21.4567 12.9328 21.3461 13.0629C21.1678 13.2701 20.971 13.4597 20.7773 13.6522C20.704 13.725 20.6308 13.798 20.5576 13.871C20.376 14.0521 20.1942 14.233 20.0124 14.414C19.8584 14.5673 19.7044 14.7206 19.5506 14.8741C19.4789 14.9455 19.4071 15.0169 19.3353 15.0882C19.0845 15.3357 19.0845 15.3357 18.8479 15.5965C18.6743 15.8005 18.4802 15.9857 18.2903 16.1744C18.217 16.2472 18.1438 16.3202 18.0706 16.3932C17.889 16.5743 17.7072 16.7552 17.5254 16.9362C17.3714 17.0895 17.2174 17.2428 17.0636 17.3963C16.9919 17.4677 16.9201 17.5391 16.8483 17.6104C16.6592 17.7987 16.4726 17.9862 16.2996 18.1896C16.149 18.3594 15.9845 18.517 15.8236 18.6771C15.7842 18.7165 15.7447 18.7559 15.7052 18.7953C15.6022 18.8982 15.4991 19.0009 15.396 19.1037C15.2904 19.2089 15.1849 19.3142 15.0794 19.4195C14.8731 19.6254 14.6666 19.8312 14.4601 20.037C14.6262 20.2364 14.8034 20.421 14.9872 20.6042C15.017 20.634 15.0468 20.6639 15.0774 20.6946C15.1402 20.7573 15.2029 20.82 15.2657 20.8826C15.3612 20.9779 15.4565 21.0734 15.5518 21.1689C15.613 21.2301 15.6743 21.2913 15.7355 21.3525C15.7637 21.3807 15.7919 21.4089 15.8209 21.438C15.9402 21.5569 16.0596 21.6733 16.188 21.7823C16.4026 21.9673 16.5991 22.1718 16.7987 22.3726C16.8752 22.4495 16.9517 22.5263 17.0283 22.603C17.2183 22.7935 17.4082 22.9842 17.598 23.1749C17.7589 23.3364 17.9198 23.4978 18.0807 23.6591C18.1558 23.7344 18.2307 23.8097 18.3056 23.885C18.5609 24.1442 18.5609 24.1442 18.8301 24.3886C19.0413 24.568 19.2326 24.7695 19.4278 24.9659C19.5043 25.0428 19.5808 25.1195 19.6574 25.1962C19.8474 25.3867 20.0373 25.5774 20.2271 25.7681C20.388 25.9296 20.5489 26.0911 20.7098 26.2524C20.7849 26.3276 20.8598 26.403 20.9347 26.4783C21.2279 26.7727 21.2279 26.7727 21.5371 27.0501C21.6699 27.1662 21.7924 27.293 21.9166 27.418C21.9598 27.4613 21.9598 27.4613 22.0038 27.5054C22.0947 27.5965 22.1855 27.6877 22.2763 27.779C22.3384 27.8412 22.4004 27.9034 22.4624 27.9655C22.6137 28.1171 22.7648 28.2688 22.9159 28.4206C22.8552 28.55 22.7829 28.633 22.6805 28.7337C22.6514 28.7625 22.6224 28.7913 22.5925 28.821C22.5151 28.8938 22.4371 28.9635 22.3566 29.0327C22.1852 29.1815 22.0269 29.3424 21.8678 29.5041C21.6898 29.6849 21.5111 29.8604 21.3185 30.0257C21.1755 30.1531 21.0428 30.2913 20.9085 30.4277C20.7276 30.6115 20.5458 30.7901 20.3499 30.958C20.2291 31.0649 20.1224 31.1852 20.0131 31.3036C19.9315 31.3691 19.9315 31.3691 19.8663 31.3657C19.7583 31.3206 19.6955 31.2523 19.6132 31.1691C19.5967 31.1525 19.5801 31.1359 19.5631 31.1188C19.528 31.0835 19.4931 31.0481 19.4584 31.0126C19.406 30.9592 19.3533 30.9061 19.3005 30.8531C19.1617 30.713 19.0252 30.5731 18.8969 30.4234C18.753 30.2585 18.5997 30.1041 18.4445 29.9499C18.414 29.9195 18.3835 29.889 18.3521 29.8577C18.2693 29.7751 18.1864 29.6925 18.1035 29.61C18.0163 29.5231 17.9291 29.4361 17.842 29.3491C17.6208 29.1283 17.3994 28.9077 17.178 28.687C16.9389 28.4488 16.6999 28.2105 16.461 27.972C16.3745 27.8856 16.2879 27.7993 16.2013 27.7131C16.1046 27.6169 16.0081 27.5206 15.9116 27.4242C15.8833 27.3961 15.855 27.368 15.8259 27.3391C15.6819 27.1951 15.5449 27.0479 15.412 26.8937C15.2917 26.7583 15.1623 26.6317 15.0338 26.5041C15.0033 26.4736 14.9728 26.4432 14.9414 26.4119C14.8586 26.3292 14.7757 26.2467 14.6928 26.1642C14.6055 26.0773 14.5184 25.9903 14.4313 25.9033C14.21 25.6825 13.9887 25.4618 13.7673 25.2412C13.5282 25.0029 13.2892 24.7646 13.0503 24.5262C12.9638 24.4398 12.8772 24.3535 12.7906 24.2673C12.6939 24.1711 12.5974 24.0747 12.5008 23.9784C12.4726 23.9503 12.4443 23.9222 12.4151 23.8932C12.2711 23.7493 12.1342 23.6021 12.0013 23.4479C11.8809 23.3124 11.7516 23.1859 11.623 23.0582C11.5926 23.0278 11.5621 22.9974 11.5307 22.966C11.4479 22.8834 11.365 22.8009 11.2821 22.7183C11.1948 22.6314 11.1077 22.5444 11.0205 22.4575C10.7993 22.2367 10.578 22.016 10.3566 21.7954C10.1175 21.5571 9.87844 21.3188 9.63955 21.0803C9.55304 20.994 9.4665 20.9077 9.37986 20.8215C9.28321 20.7252 9.18666 20.6289 9.09013 20.5326C9.06185 20.5045 9.03356 20.4764 9.00442 20.4474C8.85756 20.3006 8.71724 20.1512 8.5841 19.9918C8.5275 19.9268 8.5275 19.9268 8.44872 19.8757C8.42762 19.8586 8.40651 19.8415 8.38477 19.8238C8.38477 19.7886 8.38477 19.7535 8.38477 19.7172C8.43847 19.6739 8.43847 19.6739 8.51578 19.6284C8.88278 19.3959 9.20195 19.0857 9.52167 18.7936C9.55572 18.7626 9.58976 18.7316 9.62484 18.6996C9.89506 18.4523 10.1576 18.1986 10.4163 17.9394C10.4556 17.9 10.495 17.8607 10.5344 17.8214C10.6159 17.7399 10.6974 17.6583 10.7789 17.5767C10.8825 17.4729 10.9864 17.3692 11.0902 17.2655C11.1712 17.1847 11.2521 17.1038 11.3329 17.0229C11.3712 16.9846 11.4094 16.9464 11.4477 16.9082C11.636 16.7202 11.8212 16.5313 11.9943 16.3292C12.0546 16.2594 12.1182 16.1939 12.1841 16.1293C12.2078 16.1059 12.2315 16.0824 12.256 16.0583C12.3043 16.0109 12.3526 15.9635 12.4009 15.9162C12.5173 15.8011 12.6301 15.685 12.737 15.5609C12.888 15.3856 13.0529 15.2255 13.218 15.0636C13.3301 14.9529 13.4388 14.8418 13.5408 14.7217C13.7595 14.4679 14.0051 14.2378 14.2432 14.0024C14.5648 13.6851 14.5648 13.6851 14.8674 13.3498C14.9889 13.2108 15.1239 13.0842 15.2558 12.9551C15.3647 12.8475 15.4698 12.739 15.5693 12.6224C15.7621 12.3988 15.9768 12.1952 16.1869 11.9879C16.4395 11.7405 16.4395 11.7405 16.6774 11.4791C16.8466 11.2811 17.0336 11.0997 17.218 10.916C17.2823 10.8519 17.3463 10.7877 17.4104 10.7234C17.5987 10.535 17.787 10.3494 17.9899 10.1766C18.0794 10.0989 18.1611 10.0152 18.2439 9.93039C18.3721 9.80067 18.5019 9.6751 18.6409 9.55697C18.7076 9.49996 18.7731 9.44211 18.8383 9.38351C19.1599 9.09665 19.4955 8.82875 19.8604 8.59824C19.8828 8.58405 19.9052 8.56986 19.9283 8.55525C20.0287 8.51731 20.0792 8.5278 20.1802 8.56271Z" fill="#0A0A0A"/>
<path d="M81.3594 9.27344C82.6022 9.27344 83.8449 9.27344 85.1254 9.27344C85.1259 9.69468 85.1264 10.1159 85.1269 10.5499C85.1287 11.8975 85.1309 13.2451 85.1335 14.5927C85.1339 14.802 85.1343 15.0113 85.1347 15.2206C85.1348 15.2623 85.1349 15.304 85.1349 15.3469C85.1362 16.0217 85.1371 16.6965 85.1378 17.3713C85.1386 18.0637 85.1398 18.756 85.1413 19.4483C85.1423 19.8756 85.1429 20.3028 85.1431 20.7301C85.1433 21.023 85.1439 21.316 85.1448 21.6089C85.1453 21.7779 85.1456 21.947 85.1455 22.116C85.1453 22.2708 85.1457 22.4257 85.1465 22.5805C85.1466 22.6364 85.1467 22.6924 85.1465 22.7483C85.1456 23.0337 85.148 23.2899 85.2675 23.5541C85.4916 23.7248 85.8232 23.7016 86.0949 23.7002C86.1227 23.7002 86.1505 23.7002 86.1792 23.7002C86.2714 23.7002 86.3636 23.6999 86.4558 23.6996C86.5223 23.6996 86.5888 23.6995 86.6553 23.6995C86.798 23.6994 86.9406 23.6992 87.0833 23.6988C87.3087 23.6984 87.5341 23.6982 87.7595 23.698C88.2374 23.6976 88.7154 23.6969 89.1934 23.6962C89.7104 23.6954 90.2274 23.6947 90.7444 23.6943C90.9687 23.6941 91.193 23.6937 91.4172 23.6933C91.5563 23.693 91.6953 23.6929 91.8344 23.6928C91.8991 23.6927 91.9638 23.6926 92.0286 23.6924C92.1165 23.6922 92.2045 23.6921 92.2924 23.6921C92.3184 23.692 92.3443 23.6919 92.371 23.6918C92.5467 23.6921 92.5467 23.6921 92.5863 23.7317C92.5946 23.8334 92.6005 23.9343 92.6049 24.0361C92.6064 24.0678 92.6078 24.0994 92.6094 24.132C92.6248 24.4818 92.6341 24.8317 92.6417 25.1818C92.6441 25.291 92.6468 25.4001 92.6496 25.5093C92.679 26.7655 92.679 26.7655 92.4201 27.0701C92.2554 27.2192 92.1248 27.253 91.9039 27.2529C91.8662 27.253 91.8285 27.2531 91.7897 27.2532C91.7484 27.2531 91.7071 27.2529 91.6645 27.2528C91.6207 27.2529 91.5768 27.2529 91.5317 27.2529C91.4097 27.253 91.2878 27.2529 91.1658 27.2527C91.0324 27.2525 90.899 27.2526 90.7655 27.2526C90.5064 27.2526 90.2473 27.2525 89.9882 27.2522C89.6885 27.252 89.3889 27.252 89.0892 27.2519C88.2979 27.2517 87.5066 27.2512 86.7153 27.2508C84.9478 27.2501 83.1804 27.2493 81.3594 27.2486C81.3594 21.3168 81.3594 15.385 81.3594 9.27344Z" fill="#0A0A0A"/>
<path d="M19.9427 17.1988C20.2912 17.3185 20.5775 17.5264 20.8554 17.7628C20.8781 17.7811 20.9007 17.7994 20.9241 17.8183C21.0565 17.9268 21.1682 18.0447 21.2791 18.175C21.3709 18.2811 21.4661 18.3838 21.5615 18.4866C21.6869 18.6218 21.8117 18.7575 21.9346 18.8951C22.2478 19.2439 22.5679 19.5852 22.9016 19.9146C23.0005 20.0126 23.0951 20.1116 23.1847 20.2184C23.4245 20.4986 23.7141 20.7368 23.9996 20.9688C24.0205 20.9862 24.0414 21.0036 24.0629 21.0216C24.1679 21.1116 24.1679 21.1116 24.2983 21.1326C24.6227 20.9993 24.8946 20.6191 25.141 20.3693C25.5284 19.9766 25.5284 19.9766 25.6847 19.8434C25.8927 19.6657 26.0814 19.467 26.2735 19.2725C26.7034 18.8373 26.7034 18.8373 26.9264 18.6473C27.1073 18.4854 27.2752 18.3085 27.4459 18.1358C27.891 17.6852 27.891 17.6852 28.1183 17.4918C28.2074 17.4141 28.2837 17.3257 28.3612 17.2366C28.4229 17.1944 28.4229 17.1944 28.5076 17.1998C28.8302 17.3043 29.0908 17.5119 29.3467 17.7272C29.3794 17.7534 29.4121 17.7795 29.4457 17.8065C29.6265 17.9511 29.7956 18.0998 29.9566 18.2661C30.018 18.3274 30.0813 18.3826 30.1483 18.4377C30.2624 18.5333 30.3563 18.6397 30.4525 18.753C30.5232 18.8332 30.5979 18.9072 30.6745 18.9817C30.8509 19.156 31.0042 19.3452 31.1586 19.539C31.1998 19.5885 31.1998 19.5885 31.2419 19.639C31.2679 19.6705 31.2939 19.7019 31.3207 19.7344C31.3442 19.7626 31.3677 19.7908 31.3919 19.8198C31.4428 19.8942 31.4428 19.8942 31.4428 20.0008C31.3917 20.0547 31.3917 20.0547 31.3203 20.1124C31.1526 20.253 30.9994 20.4048 30.8455 20.5603C30.8166 20.5893 30.7877 20.6183 30.758 20.6482C30.6664 20.7402 30.575 20.8323 30.4836 20.9244C30.363 21.0459 30.2424 21.1672 30.1216 21.2885C30.0944 21.316 30.0673 21.3435 30.0393 21.3718C29.9205 21.4911 29.8012 21.6075 29.6732 21.7169C29.4935 21.8717 29.3278 22.0406 29.1608 22.2088C29.1011 22.269 29.0412 22.329 28.9814 22.3891C28.8543 22.5165 28.7274 22.6441 28.6006 22.7717C28.4533 22.9197 28.3061 23.0677 28.1586 23.2155C28.1001 23.2742 28.0418 23.333 27.9834 23.3918C27.689 23.6877 27.689 23.6877 27.5352 23.8191C27.3548 23.9734 27.1896 24.143 27.0225 24.3113C26.9616 24.3727 26.9006 24.4339 26.8395 24.4951C26.71 24.6251 26.5805 24.7552 26.4511 24.8853C26.3009 25.0363 26.1507 25.1872 26.0004 25.338C25.9407 25.3979 25.8811 25.4579 25.8216 25.5179C25.6493 25.6909 25.4757 25.8598 25.2899 26.0185C25.1744 26.1202 25.0686 26.2313 24.9617 26.3418C24.9131 26.3914 24.8645 26.4409 24.8158 26.4904C24.7402 26.5676 24.6648 26.6448 24.5897 26.7225C24.5164 26.798 24.4427 26.873 24.3688 26.9479C24.3463 26.9714 24.3239 26.9949 24.3007 27.0191C24.2796 27.0404 24.2585 27.0616 24.2367 27.0835C24.2183 27.1024 24.1999 27.1213 24.181 27.1408C24.124 27.1766 24.124 27.1766 24.0548 27.1743C23.9565 27.1296 23.9084 27.0696 23.8388 26.9871C23.6695 26.7924 23.4901 26.6097 23.3069 26.428C23.2494 26.371 23.1921 26.3139 23.1347 26.2567C23.0131 26.1355 22.8913 26.0144 22.7695 25.8933C22.6278 25.7525 22.4863 25.6117 22.3448 25.4707C22.2888 25.4149 22.2327 25.3592 22.1765 25.3036C22.0342 25.162 21.8926 25.0208 21.762 24.8682C21.6116 24.6926 21.4468 24.5313 21.2827 24.3686C21.2238 24.3101 21.1649 24.2515 21.1061 24.1928C20.9812 24.0683 20.8561 23.9439 20.731 23.8196C20.5859 23.6753 20.4408 23.531 20.2959 23.3865C20.2384 23.3292 20.1808 23.2721 20.1231 23.2149C19.9568 23.0494 19.7953 22.8822 19.6427 22.7039C19.5089 22.554 19.3646 22.4141 19.2221 22.2727C19.1631 22.2142 19.1043 22.1555 19.0454 22.0969C18.9205 21.9724 18.7955 21.848 18.6704 21.7237C18.5253 21.5794 18.3802 21.4351 18.2353 21.2906C18.1777 21.2333 18.1201 21.1761 18.0625 21.119C17.8918 20.9491 17.7242 20.7783 17.5684 20.5945C17.4699 20.4807 17.3626 20.3754 17.2559 20.2694C17.2229 20.2362 17.2229 20.2362 17.1892 20.2023C17.1681 20.1813 17.1471 20.1603 17.1253 20.1386C17.097 20.1103 17.097 20.1103 17.0681 20.0815C17.0185 20.0324 17.0185 20.0324 16.9473 20.0008C16.9473 19.8942 16.9473 19.8942 17 19.8382C17.0239 19.8186 17.0479 19.799 17.0726 19.7788C17.0986 19.7569 17.1247 19.7351 17.1515 19.7126C17.1911 19.6794 17.1911 19.6794 17.2315 19.6455C17.3221 19.5638 17.4112 19.4804 17.5002 19.3969C17.5244 19.3742 17.5487 19.3515 17.5737 19.328C17.769 19.1441 17.9595 18.9557 18.1473 18.7641C18.252 18.6578 18.3585 18.5562 18.4717 18.4588C18.6287 18.3232 18.7737 18.1772 18.9191 18.0292C19.0886 17.8566 19.2603 17.6912 19.4439 17.5336C19.5183 17.4669 19.5811 17.3931 19.6452 17.3165C19.7463 17.2153 19.7988 17.173 19.9427 17.1988Z" fill="#0A0A0A"/>
<path d="M24.2658 12.7188C24.3843 12.7703 24.4621 12.8352 24.5529 12.9266C24.5938 12.9676 24.5938 12.9676 24.6355 13.0095C24.6637 13.0381 24.6919 13.0667 24.721 13.0962C24.7487 13.124 24.7765 13.1518 24.8051 13.1804C24.9316 13.3078 25.0551 13.4361 25.1722 13.5722C25.3118 13.7342 25.4634 13.8832 25.6158 14.0331C25.7913 14.2056 25.9608 14.3794 26.1211 14.566C26.2375 14.697 26.3635 14.8185 26.4885 14.9412C26.6339 15.0841 26.7779 15.2257 26.9092 15.3818C26.9889 15.4891 26.9889 15.4891 27.0725 15.5251C26.9999 15.9679 26.7779 16.2754 26.4685 16.5909C26.4515 16.6083 26.4345 16.6258 26.417 16.6438C26.2558 16.8093 26.0949 16.9731 25.9185 17.1225C25.7789 17.2434 25.6494 17.3728 25.5198 17.5042C25.4982 17.5261 25.4766 17.548 25.4543 17.5706C25.3641 17.662 25.2741 17.7535 25.1844 17.8454C24.5787 18.465 24.5787 18.465 24.3013 18.6157C24.1732 18.6046 24.1016 18.5431 24.0037 18.4625C23.9728 18.437 23.9418 18.4115 23.9099 18.3852C23.8749 18.3558 23.8399 18.3264 23.8039 18.296C23.774 18.271 23.774 18.271 23.7435 18.2455C23.5175 18.0561 23.2953 17.8663 23.0906 17.6538C23.0256 17.5889 22.9584 17.5294 22.8883 17.4699C22.7425 17.3432 22.6095 17.2077 22.4782 17.066C22.4553 17.0413 22.4323 17.0165 22.4086 16.991C21.3931 15.8907 21.3931 15.8907 21.3867 15.5247C21.4445 15.4137 21.5319 15.3333 21.6211 15.2476C21.6389 15.23 21.6567 15.2124 21.675 15.1943C21.7757 15.0956 21.8794 15.0016 21.9863 14.9097C22.1502 14.7675 22.3017 14.6141 22.4538 14.4594C22.626 14.2843 22.7995 14.1152 22.9858 13.9552C23.1225 13.8335 23.2493 13.7018 23.3776 13.5713C23.5529 13.393 23.7296 13.2201 23.9194 13.057C23.9968 12.9897 24.0695 12.9185 24.1414 12.8453C24.1652 12.8212 24.189 12.797 24.2136 12.7722C24.2308 12.7545 24.248 12.7369 24.2658 12.7188Z" fill="#0A0A0A"/>
<path d="M63.0273 29.3081C63.3571 29.3066 63.6868 29.3051 64.0266 29.3036C64.1296 29.303 64.2327 29.3023 64.3389 29.3017C64.4221 29.3015 64.5054 29.3013 64.5886 29.3011C64.6516 29.3006 64.6516 29.3006 64.7158 29.3C65.1587 29.2999 65.6158 29.3029 65.9651 29.6034C66.236 29.9181 66.314 30.174 66.3069 30.5967C66.281 30.9099 66.1449 31.1646 65.9051 31.3685C65.7362 31.4722 65.5562 31.5445 65.3722 31.6171C65.3898 31.6318 65.4075 31.6464 65.4256 31.6615C65.4618 31.6923 65.4618 31.6923 65.4988 31.7237C65.5223 31.7435 65.5458 31.7633 65.57 31.7837C65.8199 32.0211 65.9997 32.287 66.1783 32.5807C66.2243 32.6556 66.2703 32.7304 66.3164 32.8052C66.348 32.8571 66.348 32.8571 66.3804 32.9099C66.4271 32.985 66.4752 33.0583 66.5254 33.1311C66.5802 33.2157 66.5802 33.2157 66.5802 33.2868C66.6036 33.2868 66.6271 33.2868 66.6512 33.2868C66.6603 33.2549 66.6603 33.2549 66.6695 33.2224C66.736 32.994 66.8149 32.773 66.9012 32.5514C66.9151 32.5154 66.929 32.4794 66.9433 32.4423C66.9887 32.3248 67.0342 32.2074 67.0798 32.09C67.1275 31.9666 67.1752 31.8432 67.2229 31.7198C67.2556 31.6352 67.2883 31.5507 67.321 31.4662C67.4332 31.1761 67.5444 30.8857 67.655 30.595C67.6698 30.5564 67.6845 30.5177 67.6997 30.4779C67.7848 30.2544 67.7848 30.2544 67.8698 30.0309C67.9084 29.929 67.9472 29.8272 67.986 29.7253C67.9974 29.6952 68.0088 29.6651 68.0205 29.6341C68.031 29.6066 68.0415 29.5791 68.0524 29.5507C68.0615 29.5268 68.0705 29.503 68.0799 29.4784C68.1079 29.4146 68.1079 29.4146 68.179 29.3081C68.2653 29.296 68.2653 29.296 68.3724 29.2977C68.4107 29.298 68.4489 29.2984 68.4883 29.2987C68.5484 29.3001 68.5484 29.3001 68.6097 29.3014C68.6501 29.3019 68.6904 29.3024 68.732 29.3029C68.8319 29.3041 68.9318 29.3059 69.0316 29.3081C69.3517 30.0624 69.6509 30.8247 69.9489 31.588C69.9811 31.6703 70.0132 31.7527 70.0454 31.835C70.0611 31.8752 70.0768 31.9154 70.093 31.9569C70.1772 32.172 70.2633 32.3861 70.3521 32.5993C70.3613 32.6215 70.3705 32.6437 70.38 32.6665C70.4244 32.7735 70.4691 32.8802 70.5143 32.9867C70.538 33.0435 70.538 33.0435 70.562 33.1014C70.5761 33.1347 70.5902 33.168 70.6047 33.2023C70.6304 33.2868 70.6304 33.2868 70.5949 33.3933C70.3135 33.3816 70.0321 33.3699 69.7422 33.3578C69.6127 33.0665 69.4989 32.7682 69.3869 32.4697C68.6131 32.4521 68.6131 32.4521 67.8237 32.4342C67.7885 32.5514 67.7533 32.6686 67.7171 32.7894C67.6803 32.8921 67.6429 32.9941 67.6038 33.0958C67.5942 33.1213 67.5845 33.1468 67.5745 33.1731C67.5511 33.2347 67.5275 33.2963 67.5039 33.3578C67.2848 33.3699 67.066 33.3787 66.8465 33.3832C66.672 33.3874 66.5052 33.4028 66.3327 33.429C66.0792 33.4577 65.8541 33.4756 65.6209 33.3578C65.3314 33.1015 65.1434 32.7288 64.9581 32.395C64.8107 32.1295 64.6774 31.9179 64.4129 31.7592C64.2371 31.7358 64.0612 31.7123 63.88 31.6882C63.88 32.2392 63.88 32.7901 63.88 33.3578C63.5986 33.3578 63.3173 33.3578 63.0273 33.3578C63.0273 32.0214 63.0273 30.685 63.0273 29.3081ZM63.88 30.0186C63.88 30.3468 63.88 30.675 63.88 31.0132C64.0273 31.014 64.1745 31.0148 64.3217 31.0152C64.3717 31.0154 64.4217 31.0156 64.4717 31.0159C64.544 31.0163 64.6162 31.0165 64.6884 31.0167C64.7318 31.0169 64.7751 31.0171 64.8198 31.0173C65.0479 31.01 65.206 31.0018 65.3722 30.8356C65.463 30.6842 65.4624 30.546 65.4433 30.3738C65.3987 30.2472 65.362 30.1816 65.259 30.0963C64.9815 29.9791 64.6546 30.0144 64.3597 30.0163C64.2014 30.0171 64.0431 30.0178 63.88 30.0186ZM68.5698 30.3383C68.5585 30.3701 68.5472 30.402 68.5356 30.4349C68.4933 30.5543 68.451 30.6737 68.4086 30.7932C68.3904 30.8446 68.3722 30.8961 68.354 30.9476C68.3276 31.022 68.3012 31.0964 68.2749 31.1709C68.2669 31.1935 68.2589 31.2161 68.2506 31.2394C68.193 31.4016 68.1328 31.5625 68.0724 31.7237C68.4124 31.7237 68.7524 31.7237 69.1027 31.7237C69.0394 31.5126 68.9784 31.3126 68.9002 31.1084C68.8917 31.0861 68.8832 31.0637 68.8744 31.0407C68.8477 30.9708 68.8209 30.901 68.794 30.8312C68.7757 30.7832 68.7573 30.7351 68.739 30.6871C68.6946 30.5708 68.65 30.4545 68.6053 30.3383C68.5936 30.3383 68.5818 30.3383 68.5698 30.3383Z" fill="#0A0A0A"/>
<path d="M90.5625 29.3088C90.8922 29.3074 91.222 29.3059 91.5617 29.3044C91.6648 29.3037 91.7678 29.3031 91.874 29.3024C91.9573 29.3022 92.0405 29.302 92.1238 29.3019C92.1867 29.3013 92.1867 29.3013 92.2509 29.3008C92.6655 29.3007 93.129 29.3017 93.4758 29.5575C93.7268 29.8108 93.8478 30.0839 93.8687 30.4388C93.8628 30.7595 93.7739 31.0331 93.5469 31.2626C93.3571 31.4381 93.1499 31.5334 92.9074 31.6179C92.9263 31.6301 92.9453 31.6422 92.9648 31.6548C93.4319 31.9828 93.7088 32.5549 94.0043 33.0301C94.024 33.0617 94.0437 33.0933 94.064 33.1259C94.1136 33.2134 94.1515 33.2999 94.1864 33.3941C93.8556 33.4716 93.4656 33.5345 93.1561 33.3586C92.7568 33.008 92.365 32.371 92.1968 31.8665C91.9638 31.7428 91.6708 31.7209 91.4152 31.6889C91.4152 32.2399 91.4152 32.7909 91.4152 33.3586C91.1338 33.3586 90.8524 33.3586 90.5625 33.3586C90.5625 32.0221 90.5625 30.6857 90.5625 29.3088ZM91.4152 30.0193C91.4152 30.3475 91.4152 30.6758 91.4152 31.014C91.5611 31.0156 91.707 31.017 91.853 31.0179C91.9025 31.0182 91.952 31.0187 92.0015 31.0193C92.4834 31.0413 92.4834 31.0413 92.9096 30.8563C93.0193 30.7022 93.0034 30.519 92.9784 30.339C92.9186 30.1879 92.842 30.1205 92.6942 30.0548C92.4289 30.0082 92.1634 30.0153 91.8948 30.0171C91.7365 30.0178 91.5783 30.0185 91.4152 30.0193Z" fill="#0A0A0A"/>
<path d="M47.6797 29.3086C47.9376 29.3086 48.1956 29.3086 48.4613 29.3086C48.7011 29.6682 48.7011 29.6682 48.7997 29.8291C48.8327 29.883 48.8327 29.883 48.8665 29.938C48.9011 29.9946 48.9011 29.9946 48.9365 30.0524C48.9739 30.1133 49.0112 30.1742 49.0486 30.235C49.0873 30.2982 49.1261 30.3613 49.1647 30.4244C49.2676 30.5922 49.3706 30.7598 49.4736 30.9274C49.5212 31.0048 49.5687 31.0822 49.6162 31.1596C49.6382 31.1953 49.6601 31.231 49.6827 31.2678C49.7016 31.2986 49.7205 31.3294 49.74 31.3611C49.8455 31.5302 49.953 31.6981 50.0601 31.8663C50.0718 31.0223 50.0835 30.1782 50.0956 29.3086C50.3536 29.3086 50.6115 29.3086 50.8772 29.3086C50.8772 30.645 50.8772 31.9814 50.8772 33.3583C50.0246 33.3583 50.0246 33.3583 49.8691 33.2185C49.8361 33.1475 49.8053 33.0756 49.7759 33.0031C49.7384 32.9355 49.6986 32.8697 49.6585 32.8036C49.6121 32.7272 49.5671 32.65 49.5223 32.5726C49.3913 32.3479 49.2553 32.1263 49.1195 31.9045C48.9098 31.5614 48.7037 31.2165 48.4968 30.8716C48.4851 31.6923 48.4734 32.5129 48.4613 33.3583C48.2034 33.3583 47.9454 33.3583 47.6797 33.3583C47.6797 32.0219 47.6797 30.6855 47.6797 29.3086ZM48.4258 30.7651C48.4613 30.8361 48.4613 30.8361 48.4613 30.8361L48.4258 30.7651Z" fill="#0A0A0A"/>
<path d="M61.7721 29.5615C62.0215 29.7676 62.1899 30.0293 62.2806 30.3386C62.2806 30.3855 62.2806 30.4323 62.2806 30.4807C62.1585 30.5045 62.0364 30.5281 61.9142 30.5517C61.8795 30.5585 61.8448 30.5653 61.8091 30.5722C61.7758 30.5787 61.7425 30.5851 61.7081 30.5917C61.6621 30.6006 61.6621 30.6006 61.6151 30.6097C61.5345 30.6228 61.5345 30.6228 61.4279 30.6228C61.4176 30.5992 61.4072 30.5756 61.3966 30.5513C61.2808 30.302 61.188 30.1545 60.9283 30.0433C60.5515 29.9775 60.187 29.9901 59.8625 30.2108C59.6441 30.4032 59.5227 30.6975 59.4805 30.9824C59.4772 31.0506 59.4772 31.0506 59.4739 31.1201C59.4725 31.1469 59.4711 31.1738 59.4697 31.2014C59.4584 31.597 59.5132 32.0396 59.767 32.3568C60.0904 32.614 60.359 32.7092 60.7743 32.6695C61.0109 32.6266 61.2283 32.532 61.4279 32.399C61.4488 32.2801 61.4488 32.2801 61.4523 32.1458C61.456 32.0652 61.4597 31.9847 61.4635 31.9016C61.1703 31.9016 60.8772 31.9016 60.5752 31.9016C60.5752 31.6672 60.5752 31.4327 60.5752 31.1911C61.1615 31.1911 61.7477 31.1911 62.3517 31.1911C62.3627 31.5879 62.3627 31.5879 62.3739 31.9926C62.3771 32.0757 62.3803 32.1587 62.3837 32.2443C62.3956 32.7605 62.3956 32.7605 62.2823 32.9274C62.189 32.9947 62.1043 33.0347 61.9964 33.0739C61.9418 33.1017 61.8874 33.1296 61.833 33.1579C61.7803 33.1813 61.7274 33.2044 61.6744 33.2271C61.6482 33.2389 61.622 33.2508 61.5949 33.263C61.0663 33.4943 60.3633 33.5389 59.82 33.3315C59.7878 33.3168 59.7557 33.3021 59.7226 33.287C59.6889 33.2724 59.6553 33.2577 59.6207 33.2426C59.1506 33.0135 58.8784 32.6382 58.7036 32.1544C58.4866 31.5059 58.5407 30.8434 58.821 30.2231C59.0757 29.7484 59.4484 29.4785 59.945 29.2999C60.5324 29.1365 61.2693 29.2005 61.7721 29.5615Z" fill="#0A0A0A"/>
<path d="M77.6641 29.3086C80.0344 29.3086 80.0344 29.3086 80.4775 29.7149C80.9047 30.167 81.0246 30.7365 81.0215 31.3401C81.0213 31.3853 81.0211 31.4305 81.0209 31.477C81.0106 32.0362 80.8823 32.5321 80.5019 32.9587C79.776 33.6394 78.4629 33.3583 77.6641 33.3583C77.6641 32.0219 77.6641 30.6855 77.6641 29.3086ZM78.5167 30.0191C78.5167 30.8866 78.5167 31.7541 78.5167 32.6478C79.269 32.717 79.269 32.717 79.9157 32.428C80.1558 32.1128 80.1581 31.7455 80.1599 31.3645C80.1607 31.3267 80.1614 31.2889 80.1621 31.2499C80.1637 30.9258 80.1397 30.5456 79.9244 30.2843C79.5372 29.9344 79.0009 30.0191 78.5167 30.0191Z" fill="#0A0A0A"/>
<path d="M103.672 29.3086C104.657 29.3086 105.642 29.3086 106.656 29.3086C106.656 29.5431 106.656 29.7775 106.656 30.0191C105.953 30.0191 105.249 30.0191 104.525 30.0191C104.525 30.3004 104.525 30.5818 104.525 30.8716C105.181 30.8716 105.838 30.8716 106.514 30.8716C106.514 31.1061 106.514 31.3406 106.514 31.5821C105.858 31.5821 105.201 31.5821 104.525 31.5821C104.525 31.9338 104.525 32.2855 104.525 32.6478C105.251 32.6478 105.978 32.6478 106.727 32.6478C106.727 32.8823 106.727 33.1168 106.727 33.3583C105.719 33.3583 104.711 33.3583 103.672 33.3583C103.672 32.0219 103.672 30.6855 103.672 29.3086Z" fill="#0A0A0A"/>
<path d="M86.8672 29.3086C87.852 29.3086 88.8369 29.3086 89.8516 29.3086C89.8516 29.5431 89.8516 29.7775 89.8516 30.0191C89.1481 30.0191 88.4446 30.0191 87.7199 30.0191C87.7199 30.3004 87.7199 30.5818 87.7199 30.8716C88.3764 30.8716 89.033 30.8716 89.7095 30.8716C89.7095 31.1061 89.7095 31.3406 89.7095 31.5821C89.0529 31.5821 88.3963 31.5821 87.7199 31.5821C87.7199 31.9338 87.7199 32.2855 87.7199 32.6478C88.4468 32.6478 89.1737 32.6478 89.9226 32.6478C89.9226 32.8823 89.9226 33.1168 89.9226 33.3583C88.9143 33.3583 87.906 33.3583 86.8672 33.3583C86.8672 32.0219 86.8672 30.6855 86.8672 29.3086Z" fill="#0A0A0A"/>
<path d="M73.9707 29.3086C74.9555 29.3086 75.9404 29.3086 76.9551 29.3086C76.9551 29.5431 76.9551 29.7775 76.9551 30.0191C76.2516 30.0191 75.5482 30.0191 74.8234 30.0191C74.8234 30.3004 74.8234 30.5818 74.8234 30.8716C75.4799 30.8716 76.1365 30.8716 76.813 30.8716C76.813 31.1061 76.813 31.3406 76.813 31.5821C76.1564 31.5821 75.4998 31.5821 74.8234 31.5821C74.8234 31.9338 74.8234 32.2855 74.8234 32.6478C75.5503 32.6478 76.2772 32.6478 77.0261 32.6478C77.0261 32.8823 77.0261 33.1168 77.0261 33.3583C76.0178 33.3583 75.0096 33.3583 73.9707 33.3583C73.9707 32.0219 73.9707 30.6855 73.9707 29.3086Z" fill="#0A0A0A"/>
<path d="M55.0332 29.3086C56.018 29.3086 57.0029 29.3086 58.0176 29.3086C58.0176 29.5431 58.0176 29.7775 58.0176 30.0191C57.3141 30.0191 56.6107 30.0191 55.8859 30.0191C55.8859 30.3004 55.8859 30.5818 55.8859 30.8716C56.5424 30.8716 57.199 30.8716 57.8755 30.8716C57.8755 31.1061 57.8755 31.3406 57.8755 31.5821C57.2189 31.5821 56.5623 31.5821 55.8859 31.5821C55.8859 31.9338 55.8859 32.2855 55.8859 32.6478C56.6128 32.6478 57.3397 32.6478 58.0886 32.6478C58.0886 32.8823 58.0886 33.1168 58.0886 33.3583C57.0803 33.3583 56.0721 33.3583 55.0332 33.3583C55.0332 32.0219 55.0332 30.6855 55.0332 29.3086Z" fill="#0A0A0A"/>
<path d="M85.6943 29.5218C85.919 29.7153 86.0603 29.9406 86.1206 30.2323C86.1206 30.3261 86.1206 30.4199 86.1206 30.5165C85.851 30.5165 85.5813 30.5165 85.3035 30.5165C85.2449 30.3993 85.1862 30.282 85.1258 30.1612C84.9649 30.0003 84.7863 29.9838 84.5625 29.9835C84.3629 29.997 84.2006 30.03 84.0245 30.1257C83.9688 30.2371 83.9587 30.3613 83.9889 30.481C84.1314 30.6332 84.3029 30.674 84.4974 30.7274C84.5612 30.7458 84.625 30.7642 84.6888 30.7826C84.7364 30.7962 84.7364 30.7962 84.7849 30.8099C85.8542 31.1144 85.8542 31.1144 86.103 31.5292C86.2741 31.8713 86.3066 32.2113 86.1917 32.5769C86.0759 32.8951 85.8884 33.1172 85.5851 33.2721C85.0676 33.4949 84.365 33.5376 83.8322 33.3345C83.6763 33.2546 83.547 33.1596 83.4205 33.0387C83.3905 33.0102 83.3905 33.0102 83.3598 32.9811C83.1128 32.7203 83.0026 32.3986 82.9941 32.044C83.078 32.0021 83.142 31.9979 83.2353 31.9895C83.2688 31.9864 83.3022 31.9833 83.3367 31.9801C83.3716 31.977 83.4066 31.9739 83.4427 31.9707C83.4956 31.9659 83.4956 31.9659 83.5495 31.961C83.6368 31.953 83.724 31.9452 83.8113 31.9374C83.8199 31.9662 83.8285 31.9949 83.8374 32.0244C83.9499 32.3891 83.9499 32.3891 84.2354 32.6235C84.4867 32.7255 84.7797 32.7259 85.037 32.6413C85.1918 32.5611 85.3068 32.4965 85.3639 32.3242C85.3929 32.1657 85.3937 32.1085 85.3011 31.9684C85.1978 31.8541 85.095 31.8183 84.946 31.7776C84.9216 31.7706 84.8973 31.7636 84.8722 31.7564C84.7911 31.7332 84.7098 31.711 84.6284 31.6888C83.5326 31.3834 83.5326 31.3834 83.2709 30.9411C83.1287 30.6729 83.089 30.3934 83.1605 30.0956C83.272 29.7595 83.4155 29.5836 83.7314 29.4219C84.3255 29.1365 85.1386 29.1359 85.6943 29.5218Z" fill="#0A0A0A"/>
<path d="M109.931 29.5814C110.118 29.755 110.219 29.9519 110.281 30.1971C110.281 30.3026 110.281 30.4081 110.281 30.5168C110.011 30.5168 109.741 30.5168 109.464 30.5168C109.417 30.4113 109.37 30.3058 109.322 30.1971C109.238 30.0726 109.158 30.0427 109.017 30.0084C108.74 29.9626 108.462 29.9712 108.22 30.1261C108.137 30.1947 108.137 30.1947 108.136 30.317C108.139 30.4427 108.139 30.4427 108.198 30.5235C108.459 30.7038 108.783 30.7708 109.086 30.8499C109.892 31.0684 109.892 31.0684 110.139 31.3694C110.164 31.3973 110.189 31.4251 110.214 31.4538C110.413 31.7327 110.447 32.0313 110.423 32.3641C110.361 32.718 110.171 32.9693 109.9 33.1975C109.46 33.494 108.824 33.4868 108.318 33.4191C107.946 33.3444 107.617 33.1391 107.403 32.8259C107.247 32.5763 107.188 32.3352 107.154 32.0444C107.238 32.0025 107.302 31.9983 107.396 31.9898C107.429 31.9868 107.462 31.9837 107.497 31.9805C107.532 31.9774 107.567 31.9743 107.603 31.9711C107.656 31.9663 107.656 31.9663 107.71 31.9613C107.797 31.9534 107.884 31.9455 107.971 31.9378C107.978 31.9595 107.985 31.9812 107.992 32.0036C108.002 32.0322 108.011 32.0608 108.021 32.0903C108.03 32.1186 108.039 32.1469 108.048 32.1761C108.118 32.3671 108.23 32.5008 108.398 32.6128C108.671 32.7198 108.977 32.7355 109.253 32.6261C109.393 32.5523 109.469 32.4763 109.535 32.3286C109.557 32.2206 109.551 32.1582 109.535 32.0444C109.409 31.8885 109.297 31.834 109.106 31.7802C109.082 31.773 109.058 31.7659 109.033 31.7586C108.951 31.7349 108.87 31.712 108.789 31.6891C108.696 31.6629 108.603 31.6364 108.51 31.6095C108.45 31.592 108.39 31.575 108.33 31.5584C107.924 31.4409 107.625 31.236 107.403 30.8721C107.277 30.5833 107.271 30.2819 107.367 29.984C107.508 29.6692 107.747 29.4754 108.062 29.349C108.672 29.1361 109.408 29.1786 109.931 29.5814Z" fill="#0A0A0A"/>
<path d="M113.016 5.43359C113.332 5.43359 113.649 5.43359 113.975 5.43359C114.095 5.75324 114.095 5.75324 114.132 5.89623C114.141 5.9281 114.149 5.95997 114.158 5.9928C114.171 6.04288 114.171 6.04288 114.184 6.09398C114.193 6.12897 114.202 6.16397 114.212 6.20003C114.241 6.31085 114.27 6.42173 114.299 6.53262C114.328 6.64439 114.358 6.75615 114.387 6.86787C114.405 6.93718 114.423 7.00653 114.442 7.0759C114.45 7.10699 114.458 7.13807 114.466 7.1701C114.474 7.19756 114.481 7.22502 114.488 7.25332C114.503 7.31657 114.503 7.31657 114.543 7.35189C114.549 7.32838 114.556 7.30487 114.562 7.28065C114.626 7.03687 114.69 6.79314 114.754 6.54943C114.778 6.45837 114.802 6.36729 114.826 6.2762C114.86 6.14559 114.894 6.01501 114.928 5.88444C114.939 5.84344 114.95 5.80244 114.961 5.7602C114.971 5.72251 114.981 5.68482 114.991 5.64598C115.004 5.59593 115.004 5.59593 115.018 5.54487C115.041 5.46912 115.041 5.46912 115.076 5.43359C115.381 5.43359 115.686 5.43359 116 5.43359C116 6.45349 116 7.47338 116 8.52418C115.801 8.52418 115.601 8.52418 115.396 8.52418C115.384 7.85597 115.373 7.18777 115.36 6.49931C115.325 6.64251 115.29 6.7857 115.253 6.93323C115.225 7.04713 115.196 7.16101 115.168 7.2749C115.138 7.39526 115.108 7.51564 115.078 7.63604C115.044 7.77407 115.01 7.91204 114.975 8.05002C114.965 8.09335 114.954 8.13668 114.943 8.18132C114.933 8.22115 114.923 8.26098 114.913 8.30201C114.9 8.3549 114.9 8.3549 114.886 8.40886C114.863 8.48866 114.863 8.48866 114.828 8.52418C114.726 8.52678 114.625 8.52746 114.523 8.5264C114.495 8.52624 114.466 8.52608 114.437 8.52591C114.366 8.52549 114.295 8.52486 114.224 8.52418C114.188 8.38998 114.152 8.25577 114.116 8.12154C114.098 8.05489 114.08 7.98824 114.062 7.92159C113.936 7.44815 113.814 6.97373 113.691 6.49931C113.679 7.16752 113.667 7.83573 113.655 8.52418C113.444 8.52418 113.233 8.52418 113.016 8.52418C113.016 7.50429 113.016 6.48439 113.016 5.43359Z" fill="#0A0A0A"/>
<path d="M102.571 29.6059C102.812 29.8184 102.977 30.1654 103.033 30.4779C102.911 30.5077 102.789 30.5372 102.666 30.5667C102.632 30.5752 102.597 30.5837 102.561 30.5924C102.511 30.6044 102.511 30.6044 102.46 30.6167C102.43 30.6241 102.399 30.6316 102.367 30.6392C102.287 30.6555 102.287 30.6555 102.18 30.6555C102.173 30.6324 102.165 30.6092 102.158 30.5853C102.063 30.3157 101.948 30.1665 101.692 30.0383C101.384 29.979 101.104 29.9963 100.83 30.1582C100.596 30.3435 100.504 30.6328 100.454 30.9182C100.394 31.4476 100.429 31.9666 100.715 32.4251C100.903 32.6084 101.113 32.6684 101.372 32.6843C101.523 32.6783 101.652 32.6356 101.789 32.5738C101.814 32.5638 101.839 32.5538 101.865 32.5434C101.948 32.4927 101.966 32.4496 102.003 32.3607C102.014 32.3381 102.026 32.3154 102.038 32.2921C102.11 32.1518 102.17 32.0151 102.216 31.8633C102.407 31.8853 102.581 31.9301 102.764 31.9899C102.79 31.9982 102.816 32.0065 102.843 32.0151C102.906 32.0354 102.97 32.0559 103.033 32.0765C102.97 32.4882 102.768 32.8901 102.429 33.1422C102.089 33.345 101.782 33.4389 101.387 33.4375C101.356 33.4381 101.324 33.4386 101.292 33.4392C100.823 33.4396 100.43 33.2565 100.089 32.9396C99.6252 32.4412 99.5281 31.8291 99.54 31.1753C99.5648 30.5667 99.7751 30.0448 100.226 29.6253C100.891 29.0746 101.889 29.1087 102.571 29.6059Z" fill="#0A0A0A"/>
<path d="M94.043 29.3086C94.3478 29.3086 94.6526 29.3086 94.9667 29.3086C95.1964 29.9389 95.414 30.572 95.624 31.2091C95.6805 31.3805 95.7371 31.5518 95.7939 31.7231C95.8067 31.7621 95.8195 31.8011 95.8326 31.8413C95.8444 31.8768 95.8562 31.9123 95.8683 31.949C95.8786 31.9803 95.8889 32.0116 95.8996 32.0439C95.9199 32.1139 95.9199 32.1139 95.9615 32.1505C96.061 31.8482 96.1605 31.5458 96.2599 31.2435C96.306 31.103 96.3522 30.9626 96.3985 30.8221C96.4432 30.6862 96.4879 30.5503 96.5325 30.4144C96.5495 30.363 96.5664 30.3115 96.5833 30.26C96.6875 29.9439 96.7883 29.627 96.8852 29.3086C97.1901 29.3086 97.4949 29.3086 97.809 29.3086C97.7386 29.5433 97.666 29.7738 97.5836 30.0041C97.5722 30.0363 97.5607 30.0684 97.5489 30.1016C97.5113 30.2073 97.4736 30.313 97.4359 30.4187C97.3819 30.5707 97.3278 30.7227 97.2738 30.8747C97.2598 30.9143 97.2457 30.9538 97.2312 30.9946C97.1234 31.298 97.0164 31.6017 96.9097 31.9055C96.8942 31.9494 96.8788 31.9934 96.8628 32.0388C96.8019 32.2123 96.741 32.3858 96.6801 32.5593C96.6379 32.6798 96.5956 32.8002 96.5533 32.9207C96.5406 32.9568 96.5279 32.993 96.5149 33.0303C96.5033 33.0633 96.4917 33.0962 96.4798 33.1302C96.4697 33.159 96.4596 33.1877 96.4492 33.2174C96.4234 33.2873 96.4234 33.2873 96.3878 33.3583C96.083 33.3583 95.7782 33.3583 95.4641 33.3583C95.4232 33.2417 95.3823 33.1251 95.3402 33.0049C95.2831 32.8422 95.2259 32.6795 95.1688 32.5169C95.1539 32.4744 95.1389 32.4319 95.1236 32.3882C94.8611 31.6414 94.595 30.896 94.3261 30.1514C94.299 30.0763 94.272 30.0011 94.2449 29.926C94.2326 29.8921 94.2204 29.8583 94.2078 29.8235C94.1907 29.7762 94.1907 29.7762 94.1733 29.7279C94.1635 29.7008 94.1538 29.6737 94.1437 29.6457C94.1064 29.5345 94.0752 29.4214 94.043 29.3086Z" fill="#0A0A0A"/>
<path d="M70.3105 29.3086C71.3657 29.3086 72.4209 29.3086 73.5081 29.3086C73.5081 29.5431 73.5081 29.7775 73.5081 30.0191C73.1212 30.0191 72.7343 30.0191 72.3357 30.0191C72.3357 31.121 72.3357 32.223 72.3357 33.3583C72.0543 33.3583 71.7729 33.3583 71.483 33.3583C71.483 32.2564 71.483 31.1544 71.483 30.0191C71.0961 30.0191 70.7092 30.0191 70.3105 30.0191C70.3105 29.7846 70.3105 29.5502 70.3105 29.3086Z" fill="#0A0A0A"/>
<path d="M51.373 29.3086C52.4282 29.3086 53.4834 29.3086 54.5706 29.3086C54.5706 29.5431 54.5706 29.7775 54.5706 30.0191C54.1837 30.0191 53.7968 30.0191 53.3982 30.0191C53.3982 31.121 53.3982 32.223 53.3982 33.3583C53.1168 33.3583 52.8354 33.3583 52.5455 33.3583C52.5455 32.2564 52.5455 31.1544 52.5455 30.0191C52.1586 30.0191 51.7717 30.0191 51.373 30.0191C51.373 29.7846 51.373 29.5502 51.373 29.3086Z" fill="#0A0A0A"/>
<path d="M46.0801 29.3086C46.3615 29.3086 46.6428 29.3086 46.9328 29.3086C46.9328 30.645 46.9328 31.9814 46.9328 33.3583C46.6514 33.3583 46.37 33.3583 46.0801 33.3583C46.0801 32.0219 46.0801 30.6855 46.0801 29.3086Z" fill="#0A0A0A"/>
<path d="M98.1289 29.3086C98.3986 29.3086 98.6682 29.3086 98.9461 29.3086C98.9461 30.645 98.9461 31.9814 98.9461 33.3583C98.6764 33.3583 98.4067 33.3583 98.1289 33.3583C98.1289 32.0219 98.1289 30.6855 98.1289 29.3086Z" fill="#0A0A0A"/>
<path d="M110.244 5.43359C111.053 5.43359 111.862 5.43359 112.696 5.43359C112.696 5.62116 112.696 5.80873 112.696 6.00198C112.256 6.01956 112.256 6.01956 111.807 6.0375C111.807 6.85811 111.807 7.67871 111.807 8.52418C111.585 8.52418 111.362 8.52418 111.132 8.52418C111.132 7.69185 111.132 6.85953 111.132 6.00198C110.839 6.00198 110.546 6.00198 110.244 6.00198C110.244 5.81441 110.244 5.62684 110.244 5.43359Z" fill="#0A0A0A"/>
</g>
<defs>
<clipPath id="clip0_147_4252">
<rect width="116" height="40" fill="white"/>
</clipPath>
</defs>
</svg>
